# xmcd
# Track frame offsets:
# 192
# 11742
# 21990
# 34707
# 48945
# 64742
# 80025
# 96305
# 106780
# 121317
# 133285
# 145442
# 158615
# 171877
# 178515
# 191050
# 202722
# 217307
# 229815
# 242062
# 254197
#
# Disc length: 3596 seconds
# Revision: 0
# Processed by: cddbd v1.5.1PL2 Copyright (c) Steve Scherf et al.
# Submitted via: VisiTrax 2.9.10.220 - For more info visit www.synapsa.com
#
DISCID=350e0a15
DTITLE=Fisher, Rob and the Coffee Club Orchestra - Shaking the Blues Away
DYEAR=1992
DGENRE=
TTITLE0=Puttin' on the Ritz
TTITLE1=Tishomingo Blues
TTITLE2=Deep Henderson
TTITLE3=How About Me?
TTITLE4=Lady of the Nile
TTITLE5=Stampede
TTITLE6=Confessin' That I Love You
TTITLE7=Three Little Words
TTITLE8=East Saint Louis Toodle-oo
TTITLE9=You Took Advantage of Me
TTITLE10=Wah-hoo
TTITLE11=Shaking The Blues Away
TTITLE12=Glad Rag Doll
TTITLE13=Doo Wacka Doo
TTITLE14=I'll Never Have to Dream Again - Lamour
TTITLE15=Steambait Stomp
TTITLE16=Doin' the Frog
TTITLE17=Copenhagen
TTITLE18=Blue Skies
TTITLE19=Beyond the Blue Horrizon
TTITLE20=Always
EXTD=
EXTT0=
EXTT1=
EXTT2=
EXTT3=
EXTT4=
EXTT5=
EXTT6=
EXTT7=
EXTT8=
EXTT9=
EXTT10=
EXTT11=
EXTT12=
EXTT13=
EXTT14=
EXTT15=
EXTT16=
EXTT17=
EXTT18=
EXTT19=
EXTT20=
PLAYORDER=
